<svg xmlns="http://www.w3.org/2000/svg" xmlns:xlink="http://www.w3.org/1999/xlink" preserveAspectRatio="xMidYMid" width="42" height="49" viewBox="0 0 42 49">
  <defs>
    <style>

      .cls-2 {
        fill: #505070;
      }
    </style>
  </defs>
  <path d="M42.009,37.299 C42.009,37.677 41.796,38.022 41.458,38.192 C41.458,38.192 21.458,48.239 21.458,48.239 C21.317,48.310 21.164,48.345 21.010,48.345 C20.856,48.345 20.702,48.310 20.561,48.239 C20.561,48.239 0.562,38.192 0.562,38.192 C0.224,38.022 0.011,37.677 0.011,37.299 C0.011,37.280 0.017,37.263 0.018,37.244 C0.018,37.231 0.011,37.219 0.011,37.206 C0.011,37.206 0.011,11.207 0.011,11.207 C0.011,11.180 0.024,11.157 0.026,11.130 C0.022,11.094 0.011,11.058 0.011,11.021 C0.011,10.643 0.224,10.297 0.562,10.127 C0.562,10.127 20.561,0.081 20.561,0.081 C20.843,-0.061 21.176,-0.061 21.458,0.081 C21.458,0.081 41.458,10.127 41.458,10.127 C41.796,10.297 42.009,10.643 42.009,11.021 C42.009,11.058 41.998,11.094 41.994,11.130 C41.996,11.157 42.009,11.180 42.009,11.207 C42.009,11.207 42.009,37.206 42.009,37.206 C42.009,37.219 42.002,37.231 42.001,37.244 C42.002,37.263 42.009,37.280 42.009,37.299 ZM22.010,45.724 C22.010,45.724 38.782,37.299 38.782,37.299 C38.782,37.299 22.010,28.874 22.010,28.874 C22.010,28.874 22.010,45.724 22.010,45.724 ZM20.010,45.724 C20.010,45.724 20.010,28.874 20.010,28.874 C20.010,28.874 3.238,37.299 3.238,37.299 C3.238,37.299 20.010,45.724 20.010,45.724 ZM2.011,35.677 C2.011,35.677 20.010,26.636 20.010,26.636 C20.010,26.636 20.010,21.683 20.010,21.683 C20.010,21.683 2.011,12.642 2.011,12.642 C2.011,12.642 2.011,35.677 2.011,35.677 ZM21.010,2.093 C21.010,2.093 3.238,11.021 3.238,11.021 C3.238,11.021 21.010,19.948 21.010,19.948 C21.010,19.948 38.782,11.021 38.782,11.021 C38.782,11.021 21.010,2.093 21.010,2.093 ZM40.009,12.642 C40.009,12.642 22.010,21.683 22.010,21.683 C22.010,21.683 22.010,26.636 22.010,26.636 C22.010,26.636 40.009,35.677 40.009,35.677 C40.009,35.677 40.009,12.642 40.009,12.642 Z" id="path-1" class="cls-2" fill-rule="evenodd"/>
</svg>
